<?xml version="1.0" encoding="UTF-8" standalone="no"?>
<!-- Created with Inkscape (http://www.inkscape.org/) -->

<svg
   xmlns:dc="http://purl.org/dc/elements/1.1/"
   xmlns:cc="http://creativecommons.org/ns#"
   xmlns:rdf="http://www.w3.org/1999/02/22-rdf-syntax-ns#"
   xmlns:svg="http://www.w3.org/2000/svg"
   xmlns="http://www.w3.org/2000/svg"
   xmlns:sodipodi="http://sodipodi.sourceforge.net/DTD/sodipodi-0.dtd"
   xmlns:inkscape="http://www.inkscape.org/namespaces/inkscape"
   width="744.09448819"
   height="1052.3622047"
   id="svg2987"
   version="1.1"
   inkscape:version="0.48.4 r9939"
   sodipodi:docname="New document 2">
  <defs
     id="defs2989" />
  <sodipodi:namedview
     id="base"
     pagecolor="#ffffff"
     bordercolor="#666666"
     borderopacity="1.0"
     inkscape:pageopacity="0.0"
     inkscape:pageshadow="2"
     inkscape:zoom="2.8"
     inkscape:cx="95.88907"
     inkscape:cy="30.916693"
     inkscape:document-units="px"
     inkscape:current-layer="layer1"
     showgrid="false"
     inkscape:window-width="1680"
     inkscape:window-height="991"
     inkscape:window-x="0"
     inkscape:window-y="27"
     inkscape:window-maximized="1" />
  <metadata
     id="metadata2992">
    <rdf:RDF>
      <cc:Work
         rdf:about="">
        <dc:format>image/svg+xml</dc:format>
        <dc:type
           rdf:resource="http://purl.org/dc/dcmitype/StillImage" />
        <dc:title></dc:title>
      </cc:Work>
    </rdf:RDF>
  </metadata>
  <g
     inkscape:label="stars"
     inkscape:groupmode="layer"
     id="layer1">
    <path
       sodipodi:type="star"
       style="fill:#ffff00;fill-rule:evenodd;stroke:#000000;stroke-width:19.56095695;stroke-linecap:butt;stroke-linejoin:miter;stroke-miterlimit:4;stroke-opacity:1;stroke-dasharray:none"
       id="path2995"
       sodipodi:sides="5"
       sodipodi:cx="-791.42859"
       sodipodi:cy="106.6479"
       sodipodi:r1="313.73978"
       sodipodi:r2="156.86989"
       sodipodi:arg1="0.91454545"
       sodipodi:arg2="1.542864"
       inkscape:flatsided="false"
       inkscape:rounded="0"
       inkscape:randomized="0"
       d="M -600.00002,355.21932 -787.04742,263.4566 -968.67938,365.52008 -939.20866,159.2712 -1092.4042,18.068288 -887.14287,-17.637809 -800.19094,-206.96949 -702.80319,-22.788184 -495.86844,1.4013109 -640.9408,150.93771 z"
       inkscape:transform-center-x="0.13460916"
       inkscape:transform-center-y="-1.3873761"
       transform="matrix(0.04972846,0,0,0.05068727,84.168014,1033.344)" />
    <path
       sodipodi:type="star"
       style="fill:#ffff00;fill-rule:evenodd;stroke:#000000;stroke-width:19.56095695;stroke-linecap:butt;stroke-linejoin:miter;stroke-miterlimit:4;stroke-opacity:1;stroke-dasharray:none"
       id="path2995-4"
       sodipodi:sides="5"
       sodipodi:cx="-791.42859"
       sodipodi:cy="106.6479"
       sodipodi:r1="313.73978"
       sodipodi:r2="156.86989"
       sodipodi:arg1="0.91454545"
       sodipodi:arg2="1.542864"
       inkscape:flatsided="false"
       inkscape:rounded="0"
       inkscape:randomized="0"
       d="M -600.00002,355.21932 -787.04742,263.4566 -968.67938,365.52008 -939.20866,159.2712 -1092.4042,18.068288 -887.14287,-17.637809 -800.19094,-206.96949 -702.80319,-22.788184 -495.86844,1.4013109 -640.9408,150.93771 z"
       inkscape:transform-center-x="-1.4424669"
       inkscape:transform-center-y="-0.13159911"
       transform="matrix(0,0.0486304,-0.05269734,0,108.59863,1075.9814)" />
    <path
       sodipodi:type="star"
       style="fill:#ffff00;fill-rule:evenodd;stroke:#000000;stroke-width:19.56095695;stroke-linecap:butt;stroke-linejoin:miter;stroke-miterlimit:4;stroke-opacity:1;stroke-dasharray:none"
       id="path2995-4-0"
       sodipodi:sides="5"
       sodipodi:cx="-791.42859"
       sodipodi:cy="106.6479"
       sodipodi:r1="313.73978"
       sodipodi:r2="156.86989"
       sodipodi:arg1="0.91454545"
       sodipodi:arg2="1.542864"
       inkscape:flatsided="false"
       inkscape:rounded="0"
       inkscape:randomized="0"
       d="M -600.00002,355.21932 -787.04742,263.4566 -968.67938,365.52008 -939.20866,159.2712 -1092.4042,18.068288 -887.14287,-17.637809 -800.19094,-206.96949 -702.80319,-22.788184 -495.86844,1.4013109 -640.9408,150.93771 z"
       inkscape:transform-center-x="-0.13724837"
       inkscape:transform-center-y="1.3870396"
       transform="matrix(-0.0506998,0,0,-0.05067088,124.11959,1041.3791)" />
    <path
       sodipodi:type="star"
       style="fill:#ffff00;fill-rule:evenodd;stroke:#000000;stroke-width:19.56095695;stroke-linecap:butt;stroke-linejoin:miter;stroke-miterlimit:4;stroke-opacity:1;stroke-dasharray:none"
       id="path2995-4-0-5"
       sodipodi:sides="5"
       sodipodi:cx="-791.42859"
       sodipodi:cy="106.6479"
       sodipodi:r1="313.73978"
       sodipodi:r2="156.86989"
       sodipodi:arg1="0.91454545"
       sodipodi:arg2="1.542864"
       inkscape:flatsided="false"
       inkscape:rounded="0"
       inkscape:randomized="0"
       d="M -600.00002,355.21932 -787.04742,263.4566 -968.67938,365.52008 -939.20866,159.2712 -1092.4042,18.068288 -887.14287,-17.637809 -800.19094,-206.96949 -702.80319,-22.788184 -495.86844,1.4013109 -640.9408,150.93771 z"
       inkscape:transform-center-x="1.4866533"
       inkscape:transform-center-y="0.13158423"
       transform="matrix(0,-0.0486056,0.0543114,0,219.64557,998.76272)" />
  </g>
  <g
     inkscape:groupmode="layer"
     id="layer2"
     inkscape:label="trails">
    <path
       sodipodi:type="spiral"
       style="fill:none;stroke:#c87c19;stroke-width:2.59649801;stroke-linecap:butt;stroke-linejoin:miter;stroke-miterlimit:4;stroke-opacity:1;stroke-dasharray:none"
       id="path3059"
       sodipodi:cx="-73.571426"
       sodipodi:cy="962.36218"
       sodipodi:expansion="1"
       sodipodi:revolution="3"
       sodipodi:radius="11.871979"
       sodipodi:argument="-17.158136"
       sodipodi:t0="0"
       d="m -73.571426,962.36218 c -0.07163,0.59092 -0.831882,0.19499 -0.982143,-0.11904 -0.407198,-0.85102 0.429936,-1.69526 1.220237,-1.84524 1.413662,-0.26828 2.590231,0.99013 2.708334,2.32142 0.173321,1.95373 -1.554374,3.50189 -3.422617,3.57143 -2.490075,0.0927 -4.420054,-2.11958 -4.434526,-4.5238 -0.01821,-3.02548 2.685138,-5.34148 5.624998,-5.29762 3.560564,0.0531 6.264754,3.25086 6.160717,6.72618 -0.122604,4.09555 -3.816699,7.1892 -7.827378,7.02382 -4.630487,-0.19095 -8.114421,-4.38261 -7.886909,-8.92857 0.258514,-5.16542 4.948555,-9.04019 10.029758,-8.75001 5.700343,0.32554 9.96635,5.51455 9.613101,11.13095 -0.392174,6.23527 -6.080564,10.89281 -12.232139,10.4762"
       transform="matrix(0.4813823,0,0,0.42793767,60.884035,629.55803)" />
    <path
       sodipodi:type="spiral"
       style="fill:none;stroke:#c87c19;stroke-width:2.16374826;stroke-linecap:butt;stroke-linejoin:miter;stroke-miterlimit:4;stroke-opacity:1;stroke-dasharray:none"
       id="path3059-3"
       sodipodi:cx="-73.571426"
       sodipodi:cy="962.36218"
       sodipodi:expansion="1"
       sodipodi:revolution="3"
       sodipodi:radius="11.871979"
       sodipodi:argument="-17.158136"
       sodipodi:t0="0"
       d="m -73.571426,962.36218 c -0.07163,0.59092 -0.831882,0.19499 -0.982143,-0.11904 -0.407198,-0.85102 0.429936,-1.69526 1.220237,-1.84524 1.413662,-0.26828 2.590231,0.99013 2.708334,2.32142 0.173321,1.95373 -1.554374,3.50189 -3.422617,3.57143 -2.490075,0.0927 -4.420054,-2.11958 -4.434526,-4.5238 -0.01821,-3.02548 2.685138,-5.34148 5.624998,-5.29762 3.560564,0.0531 6.264754,3.25086 6.160717,6.72618 -0.122604,4.09555 -3.816699,7.1892 -7.827378,7.02382 -4.630487,-0.19095 -8.114421,-4.38261 -7.886909,-8.92857 0.258514,-5.16542 4.948555,-9.04019 10.029758,-8.75001 5.700343,0.32554 9.96635,5.51455 9.613101,11.13095 -0.392174,6.23527 -6.080564,10.89281 -12.232139,10.4762"
       transform="matrix(0,-0.5650634,0.52497177,0,-490.9234,988.10051)" />
    <path
       sodipodi:type="spiral"
       style="fill:none;stroke:#c87c19;stroke-width:1.85464144;stroke-linecap:butt;stroke-linejoin:miter;stroke-miterlimit:4;stroke-opacity:1;stroke-dasharray:none"
       id="path3059-3-2"
       sodipodi:cx="-73.571426"
       sodipodi:cy="962.36218"
       sodipodi:expansion="1"
       sodipodi:revolution="3"
       sodipodi:radius="11.871979"
       sodipodi:argument="-17.158136"
       sodipodi:t0="0"
       d="m -73.571426,962.36218 c -0.07163,0.59092 -0.831882,0.19499 -0.982143,-0.11904 -0.407198,-0.85102 0.429936,-1.69526 1.220237,-1.84524 1.413662,-0.26828 2.590231,0.99013 2.708334,2.32142 0.173321,1.95373 -1.554374,3.50189 -3.422617,3.57143 -2.490075,0.0927 -4.420054,-2.11958 -4.434526,-4.5238 -0.01821,-3.02548 2.685138,-5.34148 5.624998,-5.29762 3.560564,0.0531 6.264754,3.25086 6.160717,6.72618 -0.122604,4.09555 -3.816699,7.1892 -7.827378,7.02382 -4.630487,-0.19095 -8.114421,-4.38261 -7.886909,-8.92857 0.258514,-5.16542 4.948555,-9.04019 10.029758,-8.75001 5.700343,0.32554 9.96635,5.51455 9.613101,11.13095 -0.392174,6.23527 -6.080564,10.89281 -12.232139,10.4762"
       transform="matrix(-0.67393524,0,0,-0.59911274,-41.698178,1622.0192)" />
    <path
       sodipodi:type="spiral"
       style="fill:none;stroke:#c87c19;stroke-width:2.59649801;stroke-linecap:butt;stroke-linejoin:miter;stroke-miterlimit:4;stroke-opacity:1;stroke-dasharray:none"
       id="path3059-2"
       sodipodi:cx="-73.571426"
       sodipodi:cy="962.36218"
       sodipodi:expansion="1"
       sodipodi:revolution="3"
       sodipodi:radius="11.871979"
       sodipodi:argument="-17.158136"
       sodipodi:t0="0"
       d="m -73.571426,962.36218 c -0.07163,0.59092 -0.831882,0.19499 -0.982143,-0.11904 -0.407198,-0.85102 0.429936,-1.69526 1.220237,-1.84524 1.413662,-0.26828 2.590231,0.99013 2.708334,2.32142 0.173321,1.95373 -1.554374,3.50189 -3.422617,3.57143 -2.490075,0.0927 -4.420054,-2.11958 -4.434526,-4.5238 -0.01821,-3.02548 2.685138,-5.34148 5.624998,-5.29762 3.560564,0.0531 6.264754,3.25086 6.160717,6.72618 -0.122604,4.09555 -3.816699,7.1892 -7.827378,7.02382 -4.630487,-0.19095 -8.114421,-4.38261 -7.886909,-8.92857 0.258514,-5.16542 4.948555,-9.04019 10.029758,-8.75001 5.700343,0.32554 9.96635,5.51455 9.613101,11.13095 -0.392174,6.23527 -6.080564,10.89281 -12.232139,10.4762"
       transform="matrix(-0.37645189,-0.30095079,0.28442843,-0.32897367,-217.83133,1324.2018)" />
    <path
       sodipodi:type="spiral"
       style="fill:none;stroke:#c87c19;stroke-width:2.16374826;stroke-linecap:butt;stroke-linejoin:miter;stroke-miterlimit:4;stroke-opacity:1;stroke-dasharray:none"
       id="path3059-3-0"
       sodipodi:cx="-73.571426"
       sodipodi:cy="962.36218"
       sodipodi:expansion="1"
       sodipodi:revolution="3"
       sodipodi:radius="11.871979"
       sodipodi:argument="-17.158136"
       sodipodi:t0="0"
       d="m -73.571426,962.36218 c -0.07163,0.59092 -0.831882,0.19499 -0.982143,-0.11904 -0.407198,-0.85102 0.429936,-1.69526 1.220237,-1.84524 1.413662,-0.26828 2.590231,0.99013 2.708334,2.32142 0.173321,1.95373 -1.554374,3.50189 -3.422617,3.57143 -2.490075,0.0927 -4.420054,-2.11958 -4.434526,-4.5238 -0.01821,-3.02548 2.685138,-5.34148 5.624998,-5.29762 3.560564,0.0531 6.264754,3.25086 6.160717,6.72618 -0.122604,4.09555 -3.816699,7.1892 -7.827378,7.02382 -4.630487,-0.19095 -8.114421,-4.38261 -7.886909,-8.92857 0.258514,-5.16542 4.948555,-9.04019 10.029758,-8.75001 5.700343,0.32554 9.96635,5.51455 9.613101,11.13095 -0.392174,6.23527 -6.080564,10.89281 -12.232139,10.4762"
       transform="matrix(-0.37556892,0.43438799,-0.41053984,-0.32820208,434.34038,1377.0916)" />
    <path
       sodipodi:type="spiral"
       style="fill:none;stroke:#c87c19;stroke-width:1.85464144;stroke-linecap:butt;stroke-linejoin:miter;stroke-miterlimit:4;stroke-opacity:1;stroke-dasharray:none"
       id="path3059-3-2-4"
       sodipodi:cx="-73.571426"
       sodipodi:cy="962.36218"
       sodipodi:expansion="1"
       sodipodi:revolution="3"
       sodipodi:radius="11.871979"
       sodipodi:argument="-17.158136"
       sodipodi:t0="0"
       d="m -73.571426,962.36218 c -0.07163,0.59092 -0.831882,0.19499 -0.982143,-0.11904 -0.407198,-0.85102 0.429936,-1.69526 1.220237,-1.84524 1.413662,-0.26828 2.590231,0.99013 2.708334,2.32142 0.173321,1.95373 -1.554374,3.50189 -3.422617,3.57143 -2.490075,0.0927 -4.420054,-2.11958 -4.434526,-4.5238 -0.01821,-3.02548 2.685138,-5.34148 5.624998,-5.29762 3.560564,0.0531 6.264754,3.25086 6.160717,6.72618 -0.122604,4.09555 -3.816699,7.1892 -7.827378,7.02382 -4.630487,-0.19095 -8.114421,-4.38261 -7.886909,-8.92857 0.258514,-5.16542 4.948555,-9.04019 10.029758,-8.75001 5.700343,0.32554 9.96635,5.51455 9.613101,11.13095 -0.392174,6.23527 -6.080564,10.89281 -12.232139,10.4762"
       transform="matrix(0.52703266,0.42133111,-0.39819979,0.46056314,495.62376,632.05941)" />
    <path
       sodipodi:type="spiral"
       style="fill:none;stroke:#c87c19;stroke-width:2.59649801;stroke-linecap:butt;stroke-linejoin:miter;stroke-miterlimit:4;stroke-opacity:1;stroke-dasharray:none"
       id="path3059-2-5"
       sodipodi:cx="-73.571426"
       sodipodi:cy="962.36218"
       sodipodi:expansion="1"
       sodipodi:revolution="3"
       sodipodi:radius="11.871979"
       sodipodi:argument="-17.158136"
       sodipodi:t0="0"
       d="m -73.571426,962.36218 c -0.07163,0.59092 -0.831882,0.19499 -0.982143,-0.11904 -0.407198,-0.85102 0.429936,-1.69526 1.220237,-1.84524 1.413662,-0.26828 2.590231,0.99013 2.708334,2.32142 0.173321,1.95373 -1.554374,3.50189 -3.422617,3.57143 -2.490075,0.0927 -4.420054,-2.11958 -4.434526,-4.5238 -0.01821,-3.02548 2.685138,-5.34148 5.624998,-5.29762 3.560564,0.0531 6.264754,3.25086 6.160717,6.72618 -0.122604,4.09555 -3.816699,7.1892 -7.827378,7.02382 -4.630487,-0.19095 -8.114421,-4.38261 -7.886909,-8.92857 0.258514,-5.16542 4.948555,-9.04019 10.029758,-8.75001 5.700343,0.32554 9.96635,5.51455 9.613101,11.13095 -0.392174,6.23527 -6.080564,10.89281 -12.232139,10.4762"
       transform="matrix(0.4789121,0.10291515,-0.09751232,0.41745026,253.92956,636.56374)" />
    <path
       sodipodi:type="spiral"
       style="fill:none;stroke:#c87c19;stroke-width:2.16374826;stroke-linecap:butt;stroke-linejoin:miter;stroke-miterlimit:4;stroke-opacity:1;stroke-dasharray:none"
       id="path3059-3-0-6"
       sodipodi:cx="-73.571426"
       sodipodi:cy="962.36218"
       sodipodi:expansion="1"
       sodipodi:revolution="3"
       sodipodi:radius="11.871979"
       sodipodi:argument="-17.158136"
       sodipodi:t0="0"
       d="m -73.571426,962.36218 c -0.07163,0.59092 -0.831882,0.19499 -0.982143,-0.11904 -0.407198,-0.85102 0.429936,-1.69526 1.220237,-1.84524 1.413662,-0.26828 2.590231,0.99013 2.708334,2.32142 0.173321,1.95373 -1.554374,3.50189 -3.422617,3.57143 -2.490075,0.0927 -4.420054,-2.11958 -4.434526,-4.5238 -0.01821,-3.02548 2.685138,-5.34148 5.624998,-5.29762 3.560564,0.0531 6.264754,3.25086 6.160717,6.72618 -0.122604,4.09555 -3.816699,7.1892 -7.827378,7.02382 -4.630487,-0.19095 -8.114421,-4.38261 -7.886909,-8.92857 0.258514,-5.16542 4.948555,-9.04019 10.029758,-8.75001 5.700343,0.32554 9.96635,5.51455 9.613101,11.13095 -0.392174,6.23527 -6.080564,10.89281 -12.232139,10.4762"
       transform="matrix(0.12875859,-0.55121549,0.52227788,0.11223418,-360.37573,897.87975)" />
    <path
       sodipodi:type="spiral"
       style="fill:none;stroke:#c87c19;stroke-width:1.85464144;stroke-linecap:butt;stroke-linejoin:miter;stroke-miterlimit:4;stroke-opacity:1;stroke-dasharray:none"
       id="path3059-3-2-4-7"
       sodipodi:cx="-73.571426"
       sodipodi:cy="962.36218"
       sodipodi:expansion="1"
       sodipodi:revolution="3"
       sodipodi:radius="11.871979"
       sodipodi:argument="-17.158136"
       sodipodi:t0="0"
       d="m -73.571426,962.36218 c -0.07163,0.59092 -0.831882,0.19499 -0.982143,-0.11904 -0.407198,-0.85102 0.429936,-1.69526 1.220237,-1.84524 1.413662,-0.26828 2.590231,0.99013 2.708334,2.32142 0.173321,1.95373 -1.554374,3.50189 -3.422617,3.57143 -2.490075,0.0927 -4.420054,-2.11958 -4.434526,-4.5238 -0.01821,-3.02548 2.685138,-5.34148 5.624998,-5.29762 3.560564,0.0531 6.264754,3.25086 6.160717,6.72618 -0.122604,4.09555 -3.816699,7.1892 -7.827378,7.02382 -4.630487,-0.19095 -8.114421,-4.38261 -7.886909,-8.92857 0.258514,-5.16542 4.948555,-9.04019 10.029758,-8.75001 5.700343,0.32554 9.96635,5.51455 9.613101,11.13095 -0.392174,6.23527 -6.080564,10.89281 -12.232139,10.4762"
       transform="matrix(-0.67047692,-0.14408122,0.13651727,-0.58443038,-35.626664,1584.8224)" />
    <path
       sodipodi:type="spiral"
       style="fill:none;stroke:#c87c19;stroke-width:2.59649801;stroke-linecap:butt;stroke-linejoin:miter;stroke-miterlimit:4;stroke-opacity:1;stroke-dasharray:none"
       id="path3059-2-5-0"
       sodipodi:cx="-73.571426"
       sodipodi:cy="962.36218"
       sodipodi:expansion="1"
       sodipodi:revolution="3"
       sodipodi:radius="11.871979"
       sodipodi:argument="-17.158136"
       sodipodi:t0="0"
       d="m -73.571426,962.36218 c -0.07163,0.59092 -0.831882,0.19499 -0.982143,-0.11904 -0.407198,-0.85102 0.429936,-1.69526 1.220237,-1.84524 1.413662,-0.26828 2.590231,0.99013 2.708334,2.32142 0.173321,1.95373 -1.554374,3.50189 -3.422617,3.57143 -2.490075,0.0927 -4.420054,-2.11958 -4.434526,-4.5238 -0.01821,-3.02548 2.685138,-5.34148 5.624998,-5.29762 3.560564,0.0531 6.264754,3.25086 6.160717,6.72618 -0.122604,4.09555 -3.816699,7.1892 -7.827378,7.02382 -4.630487,-0.19095 -8.114421,-4.38261 -7.886909,-8.92857 0.258514,-5.16542 4.948555,-9.04019 10.029758,-8.75001 5.700343,0.32554 9.96635,5.51455 9.613101,11.13095 -0.392174,6.23527 -6.080564,10.89281 -12.232139,10.4762"
       transform="matrix(-0.47177864,-0.16681665,0.16257017,-0.39982138,-5.2734245,1419.6964)" />
    <path
       sodipodi:type="spiral"
       style="fill:none;stroke:#c87c19;stroke-width:2.16374826;stroke-linecap:butt;stroke-linejoin:miter;stroke-miterlimit:4;stroke-opacity:1;stroke-dasharray:none"
       id="path3059-3-0-6-8"
       sodipodi:cx="-73.571426"
       sodipodi:cy="962.36218"
       sodipodi:expansion="1"
       sodipodi:revolution="3"
       sodipodi:radius="11.871979"
       sodipodi:argument="-17.158136"
       sodipodi:t0="0"
       d="m -73.571426,962.36218 c -0.07163,0.59092 -0.831882,0.19499 -0.982143,-0.11904 -0.407198,-0.85102 0.429936,-1.69526 1.220237,-1.84524 1.413662,-0.26828 2.590231,0.99013 2.708334,2.32142 0.173321,1.95373 -1.554374,3.50189 -3.422617,3.57143 -2.490075,0.0927 -4.420054,-2.11958 -4.434526,-4.5238 -0.01821,-3.02548 2.685138,-5.34148 5.624998,-5.29762 3.560564,0.0531 6.264754,3.25086 6.160717,6.72618 -0.122604,4.09555 -3.816699,7.1892 -7.827378,7.02382 -4.630487,-0.19095 -8.114421,-4.38261 -7.886909,-8.92857 0.258514,-5.16542 4.948555,-9.04019 10.029758,-8.75001 5.700343,0.32554 9.96635,5.51455 9.613101,11.13095 -0.392174,6.23527 -6.080564,10.89281 -12.232139,10.4762"
       transform="matrix(-0.21466314,0.52793769,-0.51449849,-0.181922,682.50135,1256.2655)" />
    <path
       sodipodi:type="spiral"
       style="fill:none;stroke:#c87c19;stroke-width:1.85464144;stroke-linecap:butt;stroke-linejoin:miter;stroke-miterlimit:4;stroke-opacity:1;stroke-dasharray:none"
       id="path3059-3-2-4-7-5"
       sodipodi:cx="-73.571426"
       sodipodi:cy="962.36218"
       sodipodi:expansion="1"
       sodipodi:revolution="3"
       sodipodi:radius="11.871979"
       sodipodi:argument="-17.158136"
       sodipodi:t0="0"
       d="m -73.571426,962.36218 c -0.07163,0.59092 -0.831882,0.19499 -0.982143,-0.11904 -0.407198,-0.85102 0.429936,-1.69526 1.220237,-1.84524 1.413662,-0.26828 2.590231,0.99013 2.708334,2.32142 0.173321,1.95373 -1.554374,3.50189 -3.422617,3.57143 -2.490075,0.0927 -4.420054,-2.11958 -4.434526,-4.5238 -0.01821,-3.02548 2.685138,-5.34148 5.624998,-5.29762 3.560564,0.0531 6.264754,3.25086 6.160717,6.72618 -0.122604,4.09555 -3.816699,7.1892 -7.827378,7.02382 -4.630487,-0.19095 -8.114421,-4.38261 -7.886909,-8.92857 0.258514,-5.16542 4.948555,-9.04019 10.029758,-8.75001 5.700343,0.32554 9.96635,5.51455 9.613101,11.13095 -0.392174,6.23527 -6.080564,10.89281 -12.232139,10.4762"
       transform="matrix(0.6604901,0.23354331,-0.22759822,0.55974993,456.67988,507.89273)" />
  </g>
</svg>
